Coordinates
version=1
nRows=27
nColumns=12
inDegrees=yes

Units are S.I. units (second, meters, Newtons, ...)
Angles are in degrees

endheader
time	SC_y	SC_z	SC_x	AC_y	AC_z	AC_x	GH_y	GH_z	GH_yy	EL_x	PS_y
       0.0              -42.82          11.56          53.81           69.0         -6.211         -14.15          116.9          43.71         -77.37          137.4          67.01
   0.01448              -42.82          11.56          53.81           69.0         -6.211         -14.15          116.9          43.71         -77.35          137.4          67.03
   0.02895              -42.82          11.56          53.81           69.0         -6.211         -14.15          116.8          43.72         -77.33          137.4          67.04
   0.04343              -42.82          11.57          53.81           69.0         -6.211         -14.15          116.8          43.72         -77.31          137.4          67.05
    0.0579              -42.83          11.57          53.81           69.0         -6.211         -14.15          116.8          43.73         -77.29          137.4          67.07
   0.07238              -42.83          11.57          53.81           69.0         -6.211         -14.15          116.8          43.74         -77.27          137.3          67.09
   0.08685              -42.83          11.58          53.82           69.0         -6.211         -14.14          116.8          43.74         -77.24          137.3           67.1
    0.1013              -42.83          11.58          53.82           69.0         -6.211         -14.14          116.7          43.75         -77.22          137.3          67.12
    0.1158              -42.83          11.58          53.82           69.0         -6.211         -14.14          116.7          43.76         -77.19          137.3          67.14
    0.1303              -42.84          11.59          53.82           69.0         -6.211         -14.14          116.7          43.76         -77.16          137.3          67.17
    0.1448              -42.84          11.59          53.83          69.01         -6.211         -14.13          116.6          43.77         -77.12          137.3          67.19
    0.1592              -42.84           11.6          53.83          69.01         -6.211         -14.13          116.6          43.78         -77.09          137.3          67.21
    0.1737              -42.84           11.6          53.83          69.01          -6.21         -14.13          116.6          43.79         -77.05          137.3          67.24
    0.1882              -42.85          11.61          53.83          69.01          -6.21         -14.12          116.5           43.8         -77.01          137.3          67.27
    0.2027              -42.85          11.61          53.84          69.01          -6.21         -14.12          116.5          43.81         -76.97          137.3           67.3
    0.2171              -42.85          11.62          53.84          69.01          -6.21         -14.11          116.4          43.82         -76.92          137.2          67.34
    0.2316              -42.86          11.63          53.85          69.01          -6.21         -14.11          116.4          43.84         -76.86          137.2          67.38
    0.2461              -42.86          11.64          53.85          69.01          -6.21          -14.1          116.3          43.85         -76.81          137.2          67.42
    0.2606              -42.87          11.64          53.85          69.01          -6.21          -14.1          116.3          43.86         -76.75          137.2          67.46
     0.275              -42.87          11.65          53.86          69.01          -6.21         -14.09          116.2          43.88         -76.68          137.2          67.51
    0.2895              -42.88          11.66          53.87          69.01          -6.21         -14.09          116.2           43.9          -76.6          137.1          67.56
     0.304              -42.88          11.68          53.87          69.01          -6.21         -14.08          116.1          43.92         -76.52          137.1          67.62
    0.3185              -42.89          11.69          53.88          69.01         -6.209         -14.07          116.0          43.94         -76.43          137.1          67.69
    0.3329               -42.9           11.7          53.89          69.01         -6.209         -14.06          115.9          43.97         -76.33          137.1          67.76
    0.3474              -42.91          11.72           53.9          69.01         -6.209         -14.05          115.8           44.0         -76.22          137.0          67.84
    0.3619              -42.92          11.73           53.9          69.01         -6.209         -14.04          115.7          44.03         -76.09          137.0          67.93
    0.3764              -42.93          11.75          53.92          69.01         -6.209         -14.03          115.5          44.06         -75.95          136.9          68.03
